<?xml version="1.0" encoding="UTF-8"?>
<!DOCTYPE svg PUBLIC "-//W3C//DTD SVG 1.1//EN" "http://www.w3.org/Graphics/SVG/1.1/DTD/svg11.dtd">
<!-- Creator: CorelDRAW X7 -->
<svg xmlns="http://www.w3.org/2000/svg" xml:space="preserve" width="3.59509in" height="3.1062in" version="1.1" style="shape-rendering:geometricPrecision; text-rendering:geometricPrecision; image-rendering:optimizeQuality; fill-rule:evenodd; clip-rule:evenodd"
viewBox="0 0 2618 2262"
 xmlns:xlink="http://www.w3.org/1999/xlink">
 <defs>
  <style type="text/css">
   <![CDATA[
    .fil0 {fill:url(#id0)}
   ]]>
  </style>
  <linearGradient id="id0" gradientUnits="userSpaceOnUse" x1="0.00286689" y1="1130.95" x2="2617.91" y2="1130.95">
   <stop offset="0" style="stop-opacity:1; stop-color:#00E6FF"/>
   <stop offset="0.380392" style="stop-opacity:1; stop-color:#099AE2"/>
   <stop offset="1" style="stop-opacity:1; stop-color:#124DC4"/>
  </linearGradient>
 </defs>
 <g id="Layer_x0020_1">
  <metadata id="CorelCorpID_0Corel-Layer"/>
  <path class="fil0" d="M1510 34c613,10 1108,505 1108,1114 0,609 -495,1104 -1108,1114l0 -400 129 0 0 -145 -129 0 0 -111 206 0 0 -292 -206 0 0 -121 52 0 0 -90 -52 0 0 -131 110 0 0 -195 -110 0 0 -219 78 0 0 -160 -78 0 0 -228 49 0 0 -83 -49 0 0 -53zm-419 715l276 0 0 277 -276 0 0 -277zm-55 753l343 0 0 344 -343 0 0 -344zm-603 -952l224 0 0 225 -224 0 0 -225zm-260 280l140 0 0 135 -140 0 0 -135zm361 120l160 0 0 160 -160 0 0 -160zm248 324l160 0 0 160 -160 0 0 -160zm513 -60l160 0 0 160 -160 0 0 -160zm-48 761l160 0 0 160 -160 0 0 -160zm-633 -377l160 0 0 161 -160 0 0 -161zm226 -694l160 0 0 160 -160 0 0 -160zm431 -455l160 0 0 160 -160 0 0 -160zm-296 -341l160 0 0 160 -160 0 0 -160zm-281 -108l164 0 0 164 -164 0 0 -164zm-694 388l91 0 0 90 -91 0 0 -90zm544 928l84 0 0 84 -84 0 0 -84zm-368 -95l91 0 0 90 -91 0 0 -90zm261 -938l90 0 0 91 -90 0 0 -91zm380 405l91 0 0 90 -91 0 0 -90zm258 547l87 0 0 87 -87 0 0 -87zm-232 -847l87 0 0 87 -87 0 0 -87zm234 51l84 0 0 84 -84 0 0 -84zm199 -304l104 0 0 104 -104 0 0 -104zm403 942l146 0 0 146 -146 0 0 -146zm-40 893l97 0 0 97 -97 0 0 -97zm72 -1490l98 0 0 98 -98 0 0 -98z"/>
 </g>
</svg>
